<?xml version="1.0" encoding="utf-8"?>
<!-- Generator: Adobe Illustrator 28.0.0, SVG Export Plug-In . SVG Version: 6.00 Build 0)  -->
<svg version="1.1" id="Layer_2_00000120561026270276144890000013708200529990391175_"
	 xmlns="http://www.w3.org/2000/svg" xmlns:xlink="http://www.w3.org/1999/xlink" x="0px" y="0px" viewBox="0 0 1173.2 60.3"
	 style="enable-background:new 0 0 1173.2 60.3;" xml:space="preserve">
<style type="text/css">
	.st0{display:none;}
	.st1{display:inline;}
</style>
<g class="st0">
	<path class="st1" d="M138.6,58.2l1.7-12.3l1.3-1.3h28.9l2.1-2.1v-3.2l-2.1-2.1h-23.4l-8.5-8.5V8.5l8.5-8.5h41.2l1.3,1.3l-1.7,12.3
		l-1.3,1.3h-28.8l-2.1,2.1v3.2l2.1,2.1h23.4l8.5,8.5V51l-8.5,8.5H140L138.6,58.2z"/>
	<path class="st1" d="M204.9,58.2v-57l1.3-1.3h48.5l1.3,1.3l-1.7,12.3l-1.3,1.3h-31v7.6h25.8l1.3,1.3L247.3,36l-1.3,1.3h-24.1v7.3
		h31l1.3,1.3l1.7,12.3l-1.3,1.3h-48.5L204.9,58.2z"/>
	<path class="st1" d="M271.2,1.3l1.3-1.3h12.9l1.4,1l28.6,31.9V1.3l1.3-1.3h14.5l1.3,1.3v57l-1.3,1.3h-12.5l-2-1l-28.5-31.9v31.6
		l-1.3,1.3h-14.5l-1.3-1.3v-57H271.2z"/>
	<path class="st1" d="M347.7,58.2v-57l1.3-1.3h48l8.5,8.5V51l-8.5,8.5h-48L347.7,58.2z M386.4,44.6l2.1-2.1V17l-2.1-2.1h-21.7v29.8
		L386.4,44.6L386.4,44.6z"/>
	<path class="st1" d="M446.3,58.2V8.5l8.5-8.5h40.8l8.5,8.5v49.7l-1.3,1.3h-14.5l-1.3-1.3V40h-23.8v18.2l-1.3,1.3h-14.5L446.3,58.2z
		 M487.1,25.2V17l-2.1-2.1h-19.6l-2.1,2.1v8.2H487.1z"/>
	<path class="st1" d="M544.9,58.2v-57l1.3-1.3h48l8.5,8.5v13l-8.5,8.7v0.5l8.5,8.6V51l-8.5,8.5h-48L544.9,58.2z M583.6,24.3l2.1-2.1
		V17l-2.1-2.1h-21.7v9.4H583.6z M583.6,44.6l2.1-2.1v-4.6l-2.1-2.1h-21.7v8.8C561.9,44.6,583.6,44.6,583.6,44.6z"/>
	<path class="st1" d="M618,58.2v-57l1.3-1.3h48.5l1.3,1.3l-1.7,12.3l-1.3,1.3h-31v7.6h25.7l1.3,1.3L660.4,36l-1.3,1.3H635v7.3h31
		l1.3,1.3l1.7,12.3l-1.3,1.3h-48.5L618,58.2z"/>
	<path class="st1" d="M684.3,58.2V8.5l8.5-8.5h40.8l8.5,8.5v49.7l-1.3,1.3h-14.5l-1.3-1.3V40h-23.8v18.2l-1.3,1.3h-14.5L684.3,58.2z
		 M725.1,25.2V17l-2.1-2.1h-19.6l-2.1,2.1v8.2H725.1z"/>
	<path class="st1" d="M815.2,8.5V21l-1.3,1.3h-14.5l-1.3-1.3v-4l-2.1-2.1h-19.6l-2.1,2.1v25.5l2.1,2.1H796l2.1-2.1v-4l1.3-1.3h14.5
		l1.3,1.3V51l-8.5,8.5h-40.8l-8.5-8.5V8.5l8.5-8.5h40.8L815.2,8.5z"/>
	<path class="st1" d="M830.5,51.8V7.6l8.5-8.5h40.8l8.5,8.5v44.2l-8.5,8.5H839L830.5,51.8z M849.6,45.5h19.6l2.1-2.1V16.1l-2.1-2.1
		h-19.6l-2.1,2.1v27.2L849.6,45.5z"/>
	<path class="st1" d="M903.6,1.3l1.3-1.3h12.9l1.4,1l28.6,31.9V1.3l1.3-1.3h14.5l1.3,1.3v57l-1.3,1.3h-12.5l-2-1l-28.5-31.9v31.6
		l-1.3,1.3h-14.5l-1.3-1.3L903.6,1.3L903.6,1.3z"/>
</g>
<g class="st0">
	<path class="st1" d="M88,2.1h13.6l1.2,1.2V57l-1.2,1.2H88L86.8,57V3.3L88,2.1z"/>
	<path class="st1" d="M117.2,3.3l1.2-1.2h12.2l1.4,1l26.9,30V3.3l1.2-1.2h13.6l1.2,1.2V57l-1.2,1.2h-11.8l-1.8-1l-26.8-30V57
		l-1.2,1.2h-13.6l-1.2-1.2V3.3z"/>
	<path class="st1" d="M190.4,2.1H204l1.2,1.2V57l-1.2,1.2h-13.6l-1.2-1.2V3.3L190.4,2.1z"/>
	<path class="st1" d="M217.2,3.3l1.2-1.2h48.8l1.2,1.2l-1.6,13.6l-1.2,1.2h-14.8V57l-1.2,1.2H236l-1.2-1.2V18.1H220l-1.2-1.2
		L217.2,3.3z"/>
	<path class="st1" d="M281.6,2.1h13.6l1.2,1.2V57l-1.2,1.2h-13.6l-1.2-1.2V3.3L281.6,2.1z"/>
	<path class="st1" d="M310.8,57V10.1l8-8h38.4l8,8V57l-1.2,1.2h-13.6l-1.2-1.2V39.8h-22.4V57l-1.2,1.2H312L310.8,57z M349.2,25.8
		v-7.7l-2-2h-18.4l-2,2v7.7H349.2z"/>
	<path class="st1" d="M394.4,2.1l1.2,1.2v40.8h28.7l1.2,1.2L423.9,57l-1.2,1.2h-41.9l-1.2-1.2V3.3l1.2-1.2H394.4z"/>
	<path class="st1" d="M438.7,2.1h13.6l1.2,1.2V57l-1.2,1.2h-13.6l-1.2-1.2V3.3L438.7,2.1z"/>
	<path class="st1" d="M465.6,57V46.2l0.3-1.5l25.2-28.5h-22.7l-1.2-1.2l-1.6-11.6l1.2-1.2h45.4l1.2,1.2v10.8l-0.3,1.5l-25.2,28.5
		h22.7l1.2,1.2l1.6,11.6l-1.2,1.2h-45.4L465.6,57z"/>
	<path class="st1" d="M525.5,57V3.3l1.2-1.2h45.6l1.2,1.2l-1.6,11.6l-1.2,1.2h-29.2v7.1h24.2l1.2,1.2l-1.6,11.6l-1.2,1.2h-22.6v6.9
		h29.2l1.2,1.2l1.6,11.6l-1.2,1.2h-45.6L525.5,57z"/>
	<path class="st1" d="M666.3,10.1v11.8l-1.2,1.2h-13.6l-1.2-1.2v-3.8l-2-2h-18.4l-2,2v24l2,2h18.4l2-2v-3.8l1.2-1.2h13.6l1.2,1.2
		v11.8l-8,8h-38.4l-8-8v-40l8-8h38.4L666.3,10.1z"/>
	<path class="st1" d="M680.7,51V9.3l8-8h38.4l8,8V51l-8,8h-38.4L680.7,51z M698.7,45h18.4l2-2V17.3l-2-2h-18.4l-2,2V43L698.7,45z"/>
	<path class="st1" d="M749.5,3.3l1.2-1.2h12.2l1.4,1l26.9,30V3.3l1.2-1.2h13.6l1.2,1.2V57l-1.2,1.2h-11.8l-1.8-1l-26.8-30V57
		l-1.2,1.2h-13.6l-1.2-1.2V3.3z"/>
	<path class="st1" d="M819.1,3.3l1.2-1.2h48.8l1.2,1.2l-1.6,13.6l-1.2,1.2h-14.8V57l-1.2,1.2h-13.6l-1.2-1.2V18.1h-14.8l-1.2-1.2
		L819.1,3.3z"/>
	<path class="st1" d="M882.3,57V10.1l8-8h38.4l8,8V57l-1.2,1.2h-13.6l-1.2-1.2V39.8h-22.4V57l-1.2,1.2h-13.6L882.3,57z M920.7,25.8
		v-7.7l-2-2h-18.4l-2,2v7.7H920.7z"/>
	<path class="st1" d="M1005.5,10.1v11.8l-1.2,1.2h-13.6l-1.2-1.2v-3.8l-2-2h-18.4l-2,2v24l2,2h18.4l2-2v-3.8l1.2-1.2h13.6l1.2,1.2
		v11.8l-8,8h-38.4l-8-8v-40l8-8h38.4L1005.5,10.1z"/>
	<path class="st1" d="M1017.5,3.3l1.2-1.2h48.8l1.2,1.2l-1.6,13.6l-1.2,1.2h-14.8V57l-1.2,1.2h-13.6l-1.2-1.2V18.1h-14.8l-1.2-1.2
		L1017.5,3.3z"/>
</g>
<g>
	<path d="M139.4,2.1H153l1.2,1.2V57l-1.2,1.2h-13.6l-1.2-1.2V3.3L139.4,2.1z"/>
	<path d="M168.6,3.3l1.2-1.2H182l1.4,1l26.9,30V3.3l1.2-1.2H225l1.2,1.2V57l-1.2,1.2h-11.8l-1.8-1l-26.8-30V57l-1.2,1.2h-13.6
		l-1.2-1.2V3.3z"/>
	<path d="M241.8,2.1h13.6l1.2,1.2V57l-1.2,1.2h-13.6l-1.2-1.2V3.3L241.8,2.1z"/>
	<path d="M268.6,3.3l1.2-1.2h48.8l1.2,1.2l-1.6,13.6l-1.2,1.2h-14.8V57l-1.2,1.2h-13.6l-1.2-1.2V18.1h-14.8l-1.2-1.2L268.6,3.3z"/>
	<path d="M333,2.1h13.6l1.2,1.2V57l-1.2,1.2H333l-1.2-1.2V3.3L333,2.1z"/>
	<path d="M362.2,57V10.1l8-8h38.4l8,8V57l-1.2,1.2h-13.6l-1.2-1.2V39.8h-22.4V57l-1.2,1.2h-13.6L362.2,57z M400.6,25.8v-7.7l-2-2
		h-18.4l-2,2v7.7H400.6z"/>
	<path d="M428.6,3.3l1.2-1.2h48.8l1.2,1.2l-1.6,13.6l-1.2,1.2h-14.8V57l-1.2,1.2h-13.6l-1.2-1.2V18.1h-14.8l-1.2-1.2L428.6,3.3z"/>
	<path d="M491.8,57V3.3l1.2-1.2h45.6l1.2,1.2l-1.6,11.6l-1.2,1.2h-29.2v7.1h24.2l1.2,1.2l-1.6,11.6l-1.2,1.2h-22.6v6.9H537l1.2,1.2
		l1.6,11.6l-1.2,1.2H493L491.8,57z"/>
	<path d="M632.6,10.1v11.8l-1.2,1.2h-13.6l-1.2-1.2v-3.8l-2-2h-18.4l-2,2v24l2,2h18.4l2-2v-3.8l1.2-1.2h13.6l1.2,1.2v11.8l-8,8
		h-38.4l-8-8v-40l8-8h38.4L632.6,10.1z"/>
	<path d="M647,51V9.3l8-8h38.4l8,8V51l-8,8H655L647,51z M665,45h18.4l2-2V17.3l-2-2H665l-2,2V43L665,45z"/>
	<path d="M715.8,3.3l1.2-1.2h12.2l1.4,1l26.9,30V3.3l1.2-1.2h13.6l1.2,1.2V57l-1.2,1.2h-11.8l-1.8-1l-26.8-30V57l-1.2,1.2H717
		l-1.2-1.2V3.3z"/>
	<path d="M785.4,3.3l1.2-1.2h48.8l1.2,1.2L835,16.9l-1.2,1.2H819V57l-1.2,1.2h-13.6L803,57V18.1h-14.8l-1.2-1.2L785.4,3.3z"/>
	<path d="M848.6,57V10.1l8-8H895l8,8V57l-1.2,1.2h-13.6L887,57V39.8h-22.4V57l-1.2,1.2h-13.6L848.6,57z M887,25.8v-7.7l-2-2h-18.4
		l-2,2v7.7H887z"/>
	<path d="M971.8,10.1v11.8l-1.2,1.2H957l-1.2-1.2v-3.8l-2-2h-18.4l-2,2v24l2,2h18.4l2-2v-3.8l1.2-1.2h13.6l1.2,1.2v11.8l-8,8h-38.4
		l-8-8v-40l8-8h38.4L971.8,10.1z"/>
	<path d="M983.8,3.3l1.2-1.2h48.8l1.2,1.2l-1.6,13.6l-1.2,1.2h-14.8V57l-1.2,1.2h-13.6l-1.2-1.2V18.1h-14.8l-1.2-1.2L983.8,3.3z"/>
</g>
</svg>
